<?xml version="1.0" encoding="utf-8"?>
<!-- Generator: Adobe Illustrator 25.4.1, SVG Export Plug-In . SVG Version: 6.00 Build 0)  -->
<svg version="1.1" id="Layer_1" xmlns="http://www.w3.org/2000/svg" xmlns:xlink="http://www.w3.org/1999/xlink" x="0px" y="0px"
	 viewBox="0 0 288 61.1" style="enable-background:new 0 0 288 61.1;" xml:space="preserve">
<style type="text/css">
	
		.st0{clip-path:url(#SVGID_00000026883042302999801510000002763136548792106648_);fill:url(#SVGID_00000152228022252850624680000006855679886930693769_);}
	.st1{fill:#FFFFFF;}
</style>
<g>
	<g>
		<defs>
			<path id="SVGID_1_" d="M35.1,48.7c3.7,0,7.2-0.6,10.3-1.6c0.8-0.3,1.5-0.6,2.2-0.9c-0.9,2.1-2.1,3.9-3.8,5.2
				c-3.3,2.4-7.1,4-11.3,4.7C33.7,54.2,34.5,51.7,35.1,48.7 M17.8,53.8c-0.1-0.1-0.2-0.1-0.3-0.2c-1.5-0.7-2-3.9-1.3-8.9
				c2.8,1.3,5.8,2.2,9,2.9c2.4,0.5,4.8,0.8,7.2,1c-1.2,5-2.6,7.7-3.6,7.7c-0.1,0-0.1,0-0.2,0C24.8,56.3,21.1,55.4,17.8,53.8
				 M4.3,37.8c-0.2-0.8-0.4-1.7-0.4-2.6c0.9,1.2,1.9,2.5,3.2,3.6c1.9,1.8,4.2,3.3,6.7,4.7c-0.5,2.9-0.7,5.5-0.3,7.6
				C9.1,47.9,5.8,43.2,4.3,37.8 M36.8,30.8c0-1,0-2,0-3.1c3.3-0.2,6.3-1.1,8.7-2.5C47.7,29.8,49,34.5,49,39c0,1.3-0.1,2.5-0.3,3.7
				c-1.2,0.7-2.5,1.3-4,1.9c-2.7,0.9-5.7,1.4-9,1.5C36.4,41.4,36.8,36,36.8,30.8 M25.8,45.1c-3.2-0.7-6.3-1.7-9.1-3
				c0.9-4.1,2.6-9,5.3-14.6c0.4-0.8,0.8-1.6,1.2-2.3c1.9,0.8,3.9,1.5,6.1,2c1.6,0.3,3.3,0.5,4.8,0.6c0,1,0,2,0,3
				c0,6.2-0.5,11.3-1.2,15.3C30.6,46,28.2,45.7,25.8,45.1 M8.9,36.9c-2.2-2.1-3.7-4.2-4.5-6.4c0.6-2.4,1.8-4.8,3.6-7.2
				c1.7-2.2,3.7-4.2,6.1-5.9c0.7,1.2,1.6,2.4,2.9,3.6c1.2,1.1,2.5,2.1,4,2.9c-0.4,0.8-0.8,1.6-1.2,2.4c-2.3,4.8-4.2,9.8-5.3,14.5
				C12.3,39.7,10.4,38.4,8.9,36.9 M35,12.7c3,2.2,5.7,5.1,8,8.4c0.4,0.6,0.8,1.3,1.2,1.9c-2.1,1.2-4.7,1.9-7.6,2.1
				C36.4,20.6,35.9,16.3,35,12.7 M29.8,24.6c-1.9-0.4-3.7-1-5.3-1.7c2.4-4.3,5.1-8,7.7-10.7c0.8,3.2,1.5,7.6,1.8,13
				C32.6,25.1,31.2,24.9,29.8,24.6 M18.7,19.2c-1.1-1-1.9-2.1-2.5-3.1c2.4-1.5,5.2-2.7,8-3.5c1.7-0.5,3.5-0.9,5.2-1.2
				c-2.5,2.8-5,6.4-7.3,10.4C20.8,21,19.7,20.1,18.7,19.2 M13,10.9c0,0.1-0.1,0.3-0.1,0.4c-0.3,1.2-0.2,2.5,0.1,3.7
				c-2.8,1.9-5.3,4.2-7.2,6.8c-0.6,0.8-1.1,1.6-1.6,2.4C5.7,18.9,8.8,14.2,13,10.9 M15.5,11.8c0.3-1.4,1.1-2.6,2.4-3.6
				c3-0.9,6.6-0.7,10.3,0.7C26.6,9.2,25,9.5,23.5,10c-2.9,0.9-5.6,2-8.1,3.5C15.3,12.9,15.4,12.4,15.5,11.8 M36.7,8.4
				c0.9-0.6,1.7-1,2.4-1.1c1.3,0.5,2.6,1.2,3.8,2C41,8.8,38.9,8.5,36.7,8.4 M32.3,5.6c1.1,0.1,2.2,0.3,3.4,0.6
				c-0.7,0.4-1.5,0.9-2.3,1.5C33.1,6.8,32.7,6.1,32.3,5.6 M29.5,6.6c-1.2-0.5-2.4-0.8-3.5-1.1c0.9-0.1,1.9-0.2,2.8-0.2
				c0.4,0,1,0.5,1.6,1.6C30,6.8,29.8,6.7,29.5,6.6 M0.7,30.9c0,2.7,0.4,5.3,1.1,7.7c0,0.2,0.1,0.3,0.1,0.5c0,0,0,0.1,0,0.1
				c3.5,11.5,14.2,19.8,26.8,19.8c5.8,0,11.3-1.8,15.8-4.8c0,0,0.1,0,0.1-0.1c0.3-0.2,0.5-0.4,0.8-0.6c5.2-3.8,9-9.4,10.6-15.8
				c0.1-0.3,0.2-0.6,0.2-0.9c0-0.1,0-0.1,0-0.2c0.4-1.8,0.6-3.8,0.6-5.7c0-3.8-0.7-7.5-2.2-10.9c-0.3-0.7-1-1-1.7-0.7
				c-0.7,0.3-1,1-0.7,1.7c1.3,3.1,2,6.5,2,9.9c0,2.1-0.3,4.2-0.7,6.1c-0.4,1.2-1.1,2.4-2,3.4c0-0.4,0-0.9,0-1.3
				c0-5-1.4-10.3-3.9-15.3c1.9-1.6,3.1-3.6,3.5-5.9c0.1-0.7-0.3-1.4-1-1.5c-0.7-0.1-1.4,0.3-1.5,1c-0.3,1.5-1,2.8-2.2,4
				c-0.4-0.6-0.8-1.2-1.2-1.8c-2.3-3.4-5-6.3-8-8.6c3.9,0.3,7.6,1.2,10.5,2.9c0.5,0.3,1.1,0.3,1.5-0.1c0.6-0.5,0.6-1.3,0.2-1.8
				C45.1,6,37.8,2.8,28.8,2.8C13.3,2.8,0.7,15.4,0.7,30.9"/>
		</defs>
		<clipPath id="SVGID_00000134954070808205077210000010523992784562044292_">
			<use xlink:href="#SVGID_1_"  style="overflow:visible;"/>
		</clipPath>
		
			<radialGradient id="SVGID_00000177457621480310820760000003281077487799486609_" cx="-160.1465" cy="423.2404" r="0.7667" gradientTransform="matrix(60.7425 0 0 -60.7427 9782.0479 25722.0215)" gradientUnits="userSpaceOnUse">
			<stop  offset="0" style="stop-color:#FFFFFF;stop-opacity:0.4"/>
			<stop  offset="0.544" style="stop-color:#FFFFFF"/>
			<stop  offset="1" style="stop-color:#FFFFFF"/>
		</radialGradient>
		
			<rect x="0.7" y="2.8" style="clip-path:url(#SVGID_00000134954070808205077210000010523992784562044292_);fill:url(#SVGID_00000177457621480310820760000003281077487799486609_);" width="56.2" height="56.2"/>
	</g>
	<path class="st1" d="M280.9,22.6c4.2,0,6.4,2,6.4,5.7c0,3.4-2.3,5.5-6,5.5h-2.6v5.3h-3.5V22.6H280.9z M278.6,30.9h2.1
		c2,0,3.1-0.9,3.1-2.6c0-1.8-1.1-2.8-3.2-2.8h-2V30.9z M268.7,32.5c0,2.4-0.9,3.6-2.8,3.6c-1.9,0-2.9-1.2-2.9-3.6v-9.8h-3.5v9.6
		c0,2.4,0.6,4.1,1.7,5.3c1.1,1.1,2.6,1.6,4.7,1.6c2.9,0,6.3-1.2,6.3-6.9v-9.6h-3.5V32.5z M249.9,22.5c3.6,0,7.3,2.2,7.3,8.4
		c0,6.1-3.8,8.3-7.3,8.3c-3.6,0-7.4-2.2-7.4-8.3C242.6,24.7,246.4,22.5,249.9,22.5 M249.9,36.1c1.4,0,3.7-0.7,3.7-5.3
		c0-4.6-2.3-5.3-3.7-5.3c-2.4,0-3.7,1.9-3.7,5.3C246.2,34.3,247.5,36.1,249.9,36.1 M238.9,34.1c0.6,1.2,1.1,2.2,2.2,2.2h0.8V39
		l-0.1,0c0,0-0.6,0.2-1.7,0.2c-2.8,0-3.6-1.9-4.4-3.6c-0.6-1.4-1.1-2.6-2.6-2.6h-1.5v6h-3.5V22.6h5.8c4.3,0,6.2,1.7,6.2,5.2
		c0,2.2-1.3,3.6-2.6,4.1C238.2,32.6,238.6,33.3,238.9,34.1 M231.7,30.3h2c1.9,0,3.2-0.9,3.2-2.4c0-1.5-1.1-2.4-2.9-2.4h-2.2V30.3z
		 M218.9,33.1h3.6v0.2c0,1.1-0.4,2.9-2.9,2.9c-2.4,0-3.8-2-3.8-5.2c0-3.3,1.4-5.3,3.7-5.3c2.8,0,2.9,2.8,2.9,3l0,0.2l3.3-0.5v-0.1
		c0-1.2-1.1-5.6-6.2-5.6c-4.6,0-7.3,3.1-7.3,8.4c0,5.2,2.7,8.3,7.3,8.3c4.6,0,6.3-3.2,6.3-6v-2.9h-6.9V33.1z M208.4,22.6h-4.2
		l-5.4,7.4v-7.4h-3.5v16.4h3.5v-7.6l5.6,7.6h4.2l-6.4-8.3L208.4,22.6z M188.6,32.8l-5.7-10.1h-3.5v16.4h3.5v-9.8l5.7,9.8h3.6V22.6
		h-3.5V32.8z M172.4,22.7l6,16.3h-3.6l-1.4-4h-5.5l-1.4,4h-3.7l6-16.4h3.5L172.4,22.7z M170.6,27.1l-1.8,5.2h3.6L170.6,27.1z
		 M159.6,30.4c1.3,0.4,2.9,1.5,2.9,4c0,3-2.1,4.7-5.8,4.7h-6.9V22.6h6.3c3.6,0,5.4,1.5,5.4,4.4C161.4,29.3,160.4,30.1,159.6,30.4
		 M155.7,29.4c1.5,0,2.1-0.6,2.1-1.9c0-1.3-0.9-1.9-2.6-1.9h-2v3.8H155.7z M153.3,36.2h2.7c1.8,0,2.6-0.7,2.6-2.1
		c0-1.8-1.5-2.1-2.7-2.1h-2.7V36.2z M135.4,22.6c5.1,0,8.2,3.2,8.2,8.5c0,5-2.7,7.9-7.5,7.9h-5.6V22.6H135.4z M134,36.2h2
		c2.5,0,4-1.9,4-5.1c0-3.7-1.6-5.5-4.7-5.5H134V36.2z M121.8,22.6h-3.5v16.4h10.6v-2.9h-7.1V22.6z M113.6,34.1
		c0.6,1.2,1.1,2.2,2.2,2.2h0.8V39l-0.1,0c0,0-0.6,0.2-1.7,0.2c-2.8,0-3.6-1.9-4.4-3.6c-0.6-1.4-1.1-2.6-2.6-2.6h-1.5v6h-3.5V22.6
		h5.8c4.3,0,6.2,1.7,6.2,5.2c0,2.2-1.3,3.6-2.6,4.1C112.8,32.6,113.2,33.3,113.6,34.1 M106.3,30.3h2c1.9,0,3.1-0.9,3.1-2.4
		c0-1.5-1.1-2.4-2.9-2.4h-2.2V30.3z M93.5,22.5c3.5,0,7.3,2.2,7.3,8.4c0,6.1-3.8,8.3-7.3,8.3c-3.6,0-7.4-2.2-7.4-8.3
		C86.1,24.7,89.9,22.5,93.5,22.5 M93.5,36.1c1.4,0,3.7-0.7,3.7-5.3c0-4.6-2.3-5.3-3.7-5.3c-2.4,0-3.7,1.9-3.7,5.3
		C89.7,34.3,91.1,36.1,93.5,36.1 M81.7,22.6h4l-4.7,16.4h-4l-2.9-10.3l-2.9,10.3h-3.9l-4.7-16.4h4.1l2.8,12l3.3-12h2.9l3.2,12
		L81.7,22.6z"/>
</g>
</svg>
